<?xml version="1.0" standalone="no"?>
<!DOCTYPE svg PUBLIC "-//W3C//DTD SVG 20010904//EN"
 "http://www.w3.org/TR/2001/REC-SVG-20010904/DTD/svg10.dtd">
<svg version="1.0" xmlns="http://www.w3.org/2000/svg"
 width="246.000000pt" height="205.000000pt" viewBox="0 0 246.000000 205.000000"
 preserveAspectRatio="xMidYMid meet">
<metadata>
Created by potrace 1.15, written by Peter Selinger 2001-2017
</metadata>
<g transform="translate(0.000000,205.000000) scale(0.100000,-0.100000)"
fill="#000000" stroke="none">
<path d="M0 1025 l0 -1025 1230 0 1230 0 0 1025 0 1025 -1230 0 -1230 0 0
-1025z m2293 553 l-2 -233 -31 -3 -30 -3 0 235 0 236 33 0 32 0 -2 -232z
m-1263 122 l0 -40 45 0 c38 0 45 -3 45 -20 0 -17 -7 -20 -45 -20 l-46 0 3
-112 3 -113 38 -3 c32 -3 37 -7 37 -28 0 -22 -4 -24 -49 -24 -33 0 -56 6 -72
19 -22 18 -24 27 -27 140 -4 120 -4 121 -28 121 -17 0 -24 6 -24 20 0 15 7 20
25 20 22 0 25 4 25 34 0 28 4 35 23 39 46 9 47 8 47 -33z m-615 -52 c44 -34
55 -75 55 -198 l0 -110 -35 0 -35 0 0 114 c0 99 -3 117 -21 140 -29 37 -81 36
-120 -3 -29 -29 -29 -31 -29 -141 l0 -111 -30 3 -30 3 -3 158 -2 157 28 0 c20
0 27 -5 27 -20 0 -18 2 -18 36 5 48 33 120 34 159 3z m381 -12 l34 -34 2 -116
c0 -64 1 -122 2 -128 2 -20 -44 -22 -58 -2 -12 16 -15 16 -37 1 -38 -27 -120
-23 -153 8 -33 31 -36 90 -5 128 22 29 100 57 156 57 36 0 42 13 18 47 -20 28
-55 35 -111 23 -46 -10 -63 -4 -64 22 0 13 57 26 119 27 59 1 65 -1 97 -33z
m488 -220 c23 -36 86 -37 121 -1 24 23 25 31 25 135 l0 110 35 0 35 0 0 -160
0 -160 -30 0 c-25 0 -30 4 -30 25 l0 24 -36 -24 c-54 -37 -123 -35 -166 4
l-33 29 -3 130 -4 131 29 3 28 3 6 -112 c4 -80 10 -119 23 -137z m506 224 c0
-19 -5 -30 -12 -28 -7 1 -25 -1 -40 -5 -44 -12 -58 -52 -58 -167 l0 -101 -32
3 -33 3 -3 158 -3 157 31 0 c25 0 30 -4 30 -24 l0 -24 29 29 c20 19 40 29 60
29 28 0 31 -3 31 -30z m286 -4 l34 -34 0 -100 c0 -55 3 -114 6 -131 6 -29 5
-31 -25 -31 -21 0 -31 5 -31 15 0 19 -19 19 -44 0 -12 -9 -42 -15 -72 -15 -42
0 -56 5 -78 26 -38 39 -36 96 4 134 30 28 95 50 149 50 34 0 39 14 16 47 -20
28 -55 35 -111 23 -46 -10 -63 -4 -64 22 0 13 57 26 119 27 59 1 65 -1 97 -33z
m222 -608 l-3 -233 -32 -3 -33 -3 0 235 0 236 35 0 35 0 -2 -232z m-648 128
c0 -34 1 -35 43 -38 35 -2 43 -7 45 -25 3 -21 -1 -23 -42 -23 l-46 0 0 -103
c0 -112 6 -127 52 -127 23 0 28 -4 28 -25 0 -23 -4 -25 -44 -25 -91 0 -106 25
-106 175 l0 105 -25 0 c-20 0 -25 5 -25 25 0 20 5 25 25 25 20 0 25 5 25 25 0
17 7 29 23 35 39 16 47 12 47 -24z m-1236 -47 c3 -3 3 -14 0 -25 -5 -18 -12
-19 -69 -16 -63 4 -66 3 -100 -31 -51 -51 -51 -113 0 -164 34 -34 37 -35 100
-31 57 3 64 2 69 -16 3 -11 3 -23 0 -26 -3 -2 -40 -6 -82 -8 -67 -3 -81 -1
-111 20 -79 53 -101 137 -59 218 34 64 91 93 180 88 37 -2 69 -6 72 -9z m300
-1 c50 -22 60 -52 64 -190 l4 -128 -31 0 c-24 0 -31 4 -31 20 0 20 0 20 -32 0
-21 -13 -51 -20 -81 -20 -40 0 -54 5 -78 29 -72 73 -6 164 127 178 63 7 72 28
27 63 -23 18 -36 21 -68 15 -70 -11 -79 -11 -83 6 -6 33 126 53 182 27z m256
-13 l0 -24 36 24 c47 32 124 34 172 5 69 -42 93 -174 44 -240 -52 -70 -159
-94 -216 -49 l-26 20 0 -85 0 -86 -35 0 -35 0 0 230 0 230 30 0 c25 0 30 -4
30 -25z m455 -140 l0 -160 -32 -3 -33 -3 0 159 c0 87 3 162 7 166 4 4 19 6 33
4 l25 -3 0 -160z m631 131 l34 -34 2 -116 c0 -64 1 -122 2 -128 1 -7 -11 -14
-26 -16 -19 -2 -28 2 -33 18 l-6 20 -26 -20 c-44 -35 -137 -24 -170 19 -19 25
-15 85 8 114 22 29 100 57 156 57 31 0 34 2 28 23 -9 29 -42 57 -69 57 -11 0
-38 -5 -60 -11 -37 -10 -55 -3 -56 23 0 13 57 26 119 27 59 1 65 -1 97 -33z
m-283 -563 c-298 -2 -788 -2 -1090 0 -301 1 -58 2 542 2 600 0 846 -1 548 -2z
m-1513 -146 c43 -22 40 -95 -5 -115 -14 -7 -37 -12 -50 -12 -21 0 -24 -5 -27
-42 -2 -31 -8 -44 -20 -46 -16 -3 -18 7 -18 106 0 60 3 112 7 115 11 12 87 7
113 -6z m346 -12 c27 -27 26 -59 -3 -82 -13 -10 -13 -14 0 -35 8 -13 18 -38
22 -55 10 -48 -20 -44 -36 5 -16 49 -27 62 -55 62 -22 0 -24 -4 -24 -51 0 -43
-3 -50 -17 -47 -16 3 -18 17 -21 102 -1 55 0 106 2 113 4 8 23 13 56 13 41 0
56 -5 76 -25z m381 -10 c33 -33 35 -39 31 -86 -6 -59 -35 -96 -85 -105 -77
-14 -133 28 -133 100 0 82 39 125 114 126 30 0 45 -7 73 -35z"/>
<path d="M1009 1041 c-26 -26 -29 -36 -29 -91 0 -51 4 -65 25 -85 26 -27 89
-34 126 -15 63 34 63 176 0 210 -39 20 -91 12 -122 -19z"/>
<path d="M883 359 c-52 -19 -69 -96 -32 -143 28 -35 91 -37 113 -3 50 76 -4
174 -81 146z"/>
</g>
</svg>
